# xmcd CD database file
# Copyright (C) 1996 Ti Kan
#
# Track frame offsets:
# 	150
# 	13620
# 	27037
# 	42607
# 	60487
# 	74147
# 	89380
# 	103007
# 	121542
# 	137872
#
# Disc length: 2035 seconds
#
# Revision: 1
# Processed by: cddbd v1.4b41PL1 Copyright (c) Steve Scherf et al.
# Submitted via: DiscPlay 3.4.1
#
DISCID=8607f10a
DTITLE=Delbert McClinton - Classics Volume Two
DYEAR=1900
DGENRE=
TTITLE0=Be Good To Yourself
TTITLE1=A Fool In Love
TTITLE2=Heartbreak Radio
TTITLE3=I've Got Dreams To remember
TTITLE4=In The Midnight Hour
TTITLE5=I Wanna Thank You Baby
TTITLE6=Sandy Beaches
TTITLE7=Lipstick Traces
TTITLE8=I Feel So Bad
TTITLE9=Rooster Blues
EXTD=
EXTT0=
EXTT1=
EXTT2=
EXTT3=
EXTT4=
EXTT5=
EXTT6=
EXTT7=
EXTT8=
EXTT9=
PLAYORDER=
